<svg width="120" height="100" viewBox="0 0 120 100" fill="none" xmlns="http://www.w3.org/2000/svg">
<g id="Frame 1" clip-path="url(#clip0_3_2)">
<g id="lightGroup">
<path id="light 1" opacity="0.8" d="M43 48.2679C44.3333 49.0377 44.3333 50.9623 43 51.7321L11.5 69.9186C10.1667 70.6884 8.5 69.7261 8.5 68.1865V31.8135C8.5 30.2739 10.1667 29.3116 11.5 30.0814L43 48.2679Z" fill="#82C1EF"/>
</g>
<g id="darkGroup">
<path id="Dark 2" opacity="0.8" d="M43 48.2679C44.3333 49.0377 44.3333 50.9623 43 51.7321L11.5 69.9186C10.1667 70.6884 8.5 69.7261 8.5 68.1865V31.8135C8.5 30.2739 10.1667 29.3116 11.5 30.0814L43 48.2679Z" fill="#EE7373"/>
<path id="Dark 1" opacity="0.8" d="M57 48.2679C58.3333 49.0377 58.3333 50.9623 57 51.7321L25.5 69.9186C24.1667 70.6884 22.5 69.7261 22.5 68.1865V31.8135C22.5 30.2739 24.1667 29.3116 25.5 30.0814L57 48.2679Z" fill="#F47272"/>
</g>
</g>
<defs>
<clipPath id="clip0_3_2">
<rect width="120" height="100" fill="white"/>
</clipPath>
</defs>
</svg>
